<svg xmlns="http://www.w3.org/2000/svg" width="22" height="22" fill="none"><g clip-path="url(#a)"><path stroke="#0C50B6" stroke-miterlimit="10" stroke-width="2.29" d="M10.74 20.699a8.81 8.81 0 1 0 0-17.619 8.81 8.81 0 0 0 0 17.619Z"/><path fill="#0C50B6" d="M17.828 21.207a3.29 3.29 0 1 0 0-6.578 3.29 3.29 0 0 0 0 6.579ZM3.29 21.163a3.29 3.29 0 1 0 0-6.579 3.29 3.29 0 0 0 0 6.579ZM10.672 6.579a3.29 3.29 0 1 0 0-6.58 3.29 3.29 0 0 0 0 6.58Z"/></g><defs><clipPath id="a"><path fill="#fff" d="M0 0h21.114v22H0z"/></clipPath></defs></svg>