<svg xmlns="http://www.w3.org/2000/svg" width="22" height="22" fill="none"><g stroke="#0C50B6" stroke-miterlimit="10" stroke-width="2.29" clip-path="url(#a)"><path d="M11.004 20.855c5.443 0 9.855-4.412 9.855-9.855 0-5.443-4.412-9.855-9.855-9.855-5.443 0-9.856 4.412-9.856 9.855 0 5.443 4.413 9.855 9.856 9.855ZM6.922 6.92l8.16 8.16"/><path d="M14.033 8.567a.603.603 0 1 0 0-1.206.603.603 0 0 0 0 1.206ZM8.267 14.64a.603.603 0 1 0 0-1.206.603.603 0 0 0 0 1.205Z"/></g><defs><clipPath id="a"><path fill="#fff" d="M0 0h22v22H0z"/></clipPath></defs></svg>