<svg xmlns="http://www.w3.org/2000/svg" width="22" height="22" fill="none"><g stroke="#0C50B6" stroke-miterlimit="10" stroke-width="2.29" clip-path="url(#a)"><path d="m2.347 15.329-.956-3.824 2.034-1.046c.071-.95.323-1.89.754-2.762L2.976 5.782l2.785-2.79 1.95 1.213a7.537 7.537 0 0 1 2.736-.718l1.089-2.071 3.797 1.059-.084 2.321a7.579 7.579 0 0 1 1.96 1.965l2.438-.073.945 3.827-2.088 1.068a7.544 7.544 0 0 1-.714 2.694l1.22 1.951-2.788 2.788-1.924-1.203a7.54 7.54 0 0 1-2.768.756l-1.047 2.013-3.803-1.055.069-2.215a7.62 7.62 0 0 1-2.063-2.06l-2.34.077Z"/><path d="M10.95 13.719h.077a2.739 2.739 0 0 0 0-5.479h-.077a2.739 2.739 0 0 0 0 5.479Z"/></g><defs><clipPath id="a"><path fill="#fff" d="M0 0h21.99v22H0z"/></clipPath></defs></svg>